<mxfile host="app.diagrams.net" modified="2021-05-12T22:17:09.478Z" agent="5.0 (Macintosh)" etag="KoeBdICOBR4vD3GXQM3R" version="14.6.12" type="github">
  <diagram id="bAMTGUmW1eZoI-SbbudD" name="Page-1">
    <mxGraphModel dx="802" dy="847" grid="1" gridSize="10" guides="1" tooltips="1" connect="1" arrows="1" fold="1" page="1" pageScale="1" pageWidth="827" pageHeight="1169" math="0" shadow="0">
      <root>
        <mxCell id="0" />
        <mxCell id="1" parent="0" />
        <mxCell id="RSzvX88kuwoQsxZTcqaM-1" value="Main" style="rounded=1;whiteSpace=wrap;html=1;" vertex="1" parent="1">
          <mxGeometry x="350" y="40" width="120" height="60" as="geometry" />
        </mxCell>
        <mxCell id="RSzvX88kuwoQsxZTcqaM-8" value="" style="group" vertex="1" connectable="0" parent="1">
          <mxGeometry x="30" y="140" width="120" height="310" as="geometry" />
        </mxCell>
        <mxCell id="RSzvX88kuwoQsxZTcqaM-2" value="AnimalCARD " style="ellipse;whiteSpace=wrap;html=1;fillColor=#f5f5f5;strokeColor=#666666;fontColor=#B3B3B3;" vertex="1" parent="RSzvX88kuwoQsxZTcqaM-8">
          <mxGeometry width="120" height="60" as="geometry" />
        </mxCell>
        <mxCell id="RSzvX88kuwoQsxZTcqaM-3" value="AnimalCARD " style="ellipse;whiteSpace=wrap;html=1;fillColor=#f5f5f5;strokeColor=#666666;fontColor=#B3B3B3;" vertex="1" parent="RSzvX88kuwoQsxZTcqaM-8">
          <mxGeometry y="50" width="120" height="60" as="geometry" />
        </mxCell>
        <mxCell id="RSzvX88kuwoQsxZTcqaM-4" value="AnimalCARD " style="ellipse;whiteSpace=wrap;html=1;fillColor=#f5f5f5;strokeColor=#666666;fontColor=#B3B3B3;" vertex="1" parent="RSzvX88kuwoQsxZTcqaM-8">
          <mxGeometry y="100" width="120" height="60" as="geometry" />
        </mxCell>
        <mxCell id="RSzvX88kuwoQsxZTcqaM-5" value="AnimalCARD " style="ellipse;whiteSpace=wrap;html=1;fillColor=#f5f5f5;strokeColor=#666666;fontColor=#B3B3B3;" vertex="1" parent="RSzvX88kuwoQsxZTcqaM-8">
          <mxGeometry y="150" width="120" height="60" as="geometry" />
        </mxCell>
        <mxCell id="RSzvX88kuwoQsxZTcqaM-6" value="AnimalCARD " style="ellipse;whiteSpace=wrap;html=1;fillColor=#f5f5f5;strokeColor=#666666;fontColor=#B3B3B3;" vertex="1" parent="RSzvX88kuwoQsxZTcqaM-8">
          <mxGeometry y="200" width="120" height="60" as="geometry" />
        </mxCell>
        <mxCell id="RSzvX88kuwoQsxZTcqaM-7" value="AnimalCARD " style="ellipse;whiteSpace=wrap;html=1;fillColor=#f5f5f5;strokeColor=#666666;fontColor=#B3B3B3;" vertex="1" parent="RSzvX88kuwoQsxZTcqaM-8">
          <mxGeometry y="250" width="120" height="60" as="geometry" />
        </mxCell>
      </root>
    </mxGraphModel>
  </diagram>
</mxfile>
